<?xml version="1.0" encoding="UTF-8"?>
<svg width="700pt" height="700pt" version="1.1" viewBox="0 0 700 700" xmlns="http://www.w3.org/2000/svg" xmlns:xlink="http://www.w3.org/1999/xlink">
 <defs>
  <symbol id="t" overflow="visible">
   <path d="m0.9375-0.0625c-0.042969 0.03125-0.089844 0.054688-0.14062 0.0625-0.054687 0.0078125-0.10938 0.015625-0.17188 0.015625-0.16797 0-0.30469-0.046875-0.40625-0.14062-0.10547-0.09375-0.15625-0.22266-0.15625-0.39062 0-0.15625 0.050781-0.28125 0.15625-0.375 0.10156-0.10156 0.23828-0.15625 0.40625-0.15625 0.0625 0 0.11719 0.011719 0.17188 0.03125 0.050781 0.011719 0.097656 0.027344 0.14062 0.046875v0.21875c-0.042969-0.039062-0.089844-0.066406-0.14062-0.078125-0.054687-0.019531-0.10547-0.03125-0.15625-0.03125-0.09375 0-0.16797 0.03125-0.21875 0.09375-0.054687 0.0625-0.078125 0.14844-0.078125 0.25 0 0.10547 0.023438 0.1875 0.078125 0.25 0.050781 0.0625 0.125 0.09375 0.21875 0.09375 0.050781 0 0.10156-0.003906 0.15625-0.015625 0.050781-0.019531 0.097656-0.046875 0.14062-0.078125z"/>
  </symbol>
  <symbol id="c" overflow="visible">
   <path d="m0.6875-0.5625c-0.023438-0.007812-0.042969-0.015625-0.0625-0.015625-0.023438-0.007813-0.042969-0.015625-0.0625-0.015625-0.0625 0-0.11719 0.023438-0.15625 0.0625-0.03125 0.042969-0.046875 0.10156-0.046875 0.17188v0.35938h-0.23438v-0.76562h0.23438v0.125c0.03125-0.050781 0.066406-0.085937 0.10938-0.10938 0.039062-0.019531 0.09375-0.03125 0.15625-0.03125h0.015625 0.046875z"/>
  </symbol>
  <symbol id="a" overflow="visible">
   <path d="m0.89062-0.39062v0.078125h-0.57812c0 0.054688 0.015625 0.09375 0.046875 0.125 0.039063 0.03125 0.09375 0.046875 0.15625 0.046875 0.050781 0 0.10156-0.003906 0.15625-0.015625 0.0625-0.019531 0.11719-0.046875 0.17188-0.078125v0.1875c-0.054688 0.023438-0.10938 0.039062-0.17188 0.046875-0.054687 0.0078125-0.10938 0.015625-0.17188 0.015625-0.13672 0-0.24609-0.03125-0.32812-0.09375-0.074219-0.070313-0.10938-0.17578-0.10938-0.3125 0-0.125 0.035156-0.21875 0.10938-0.28125 0.070313-0.070313 0.17578-0.10938 0.3125-0.10938 0.125 0 0.22266 0.039062 0.29688 0.10938 0.070312 0.074219 0.10938 0.16797 0.10938 0.28125zm-0.25-0.078125c0-0.039062-0.015625-0.078125-0.046875-0.10938s-0.070312-0.046875-0.10938-0.046875c-0.054687 0-0.09375 0.015625-0.125 0.046875-0.023437 0.023437-0.039063 0.058594-0.046875 0.10938z"/>
  </symbol>
  <symbol id="e" overflow="visible">
   <path d="m0.46875-0.34375c-0.054688 0-0.09375 0.011719-0.125 0.03125-0.023438 0.011719-0.03125 0.03125-0.03125 0.0625s0.007812 0.058594 0.03125 0.078125c0.019531 0.023437 0.046875 0.03125 0.078125 0.03125 0.050781 0 0.09375-0.015625 0.125-0.046875 0.03125-0.039062 0.046875-0.082031 0.046875-0.125v-0.03125zm0.375-0.09375v0.4375h-0.25v-0.10938c-0.03125 0.042969-0.070312 0.074219-0.10938 0.09375-0.042969 0.019531-0.09375 0.03125-0.15625 0.03125-0.085937 0-0.15234-0.019531-0.20312-0.0625-0.042969-0.050781-0.0625-0.11328-0.0625-0.1875 0-0.082031 0.03125-0.14453 0.09375-0.1875 0.0625-0.050781 0.16016-0.078125 0.29688-0.078125h0.14062v-0.015625c0-0.03125-0.015625-0.054687-0.046875-0.078125-0.03125-0.019531-0.078125-0.03125-0.14062-0.03125-0.054688 0-0.10547 0.007812-0.15625 0.015625-0.042969 0.011719-0.085938 0.027344-0.125 0.046875v-0.1875c0.050781-0.007812 0.10156-0.015625 0.15625-0.015625 0.050781-0.007813 0.10938-0.015625 0.17188-0.015625 0.13281 0 0.23438 0.027344 0.29688 0.078125 0.0625 0.054687 0.09375 0.14062 0.09375 0.26562z"/>
  </symbol>
  <symbol id="b" overflow="visible">
   <path d="m0.39062-0.98438v0.21875h0.25v0.17188h-0.25v0.32812c0 0.03125 0.003906 0.058594 0.015625 0.078125 0.007812 0.011719 0.039062 0.015625 0.09375 0.015625h0.125v0.17188h-0.21875c-0.09375 0-0.16406-0.019531-0.20312-0.0625-0.042969-0.039062-0.0625-0.10938-0.0625-0.20312v-0.32812h-0.125v-0.17188h0.125v-0.21875z"/>
  </symbol>
  <symbol id="k" overflow="visible">
   <path d="m0.64062-0.65625v-0.40625h0.25v1.0625h-0.25v-0.10938c-0.03125 0.042969-0.070313 0.074219-0.10938 0.09375-0.042969 0.019531-0.089844 0.03125-0.14062 0.03125-0.09375 0-0.17188-0.035156-0.23438-0.10938-0.0625-0.070312-0.09375-0.17188-0.09375-0.29688 0-0.11328 0.03125-0.20703 0.09375-0.28125 0.0625-0.070313 0.14062-0.10938 0.23438-0.10938 0.050781 0 0.097656 0.011719 0.14062 0.03125 0.039062 0.023438 0.078125 0.054688 0.10938 0.09375zm-0.15625 0.5c0.050781 0 0.085937-0.019531 0.10938-0.0625 0.03125-0.039062 0.046875-0.097656 0.046875-0.17188 0-0.070313-0.015625-0.125-0.046875-0.15625-0.023438-0.039063-0.058594-0.0625-0.10938-0.0625-0.054687 0-0.09375 0.023437-0.125 0.0625-0.03125 0.03125-0.046875 0.085937-0.046875 0.15625 0 0.074219 0.015625 0.13281 0.046875 0.17188 0.03125 0.042969 0.070313 0.0625 0.125 0.0625z"/>
  </symbol>
  <symbol id="j" overflow="visible">
   <path d="m0.53125-0.15625c0.050781 0 0.085938-0.019531 0.10938-0.0625 0.03125-0.039062 0.046875-0.097656 0.046875-0.17188 0-0.070313-0.015625-0.125-0.046875-0.15625-0.023437-0.039063-0.058594-0.0625-0.10938-0.0625-0.054688 0-0.09375 0.023437-0.125 0.0625-0.03125 0.03125-0.046875 0.085937-0.046875 0.15625 0 0.074219 0.015625 0.13281 0.046875 0.17188 0.03125 0.042969 0.070312 0.0625 0.125 0.0625zm-0.17188-0.5c0.039063-0.039062 0.078125-0.070312 0.10938-0.09375 0.039062-0.019531 0.09375-0.03125 0.15625-0.03125 0.09375 0 0.16406 0.039062 0.21875 0.10938 0.0625 0.074219 0.09375 0.16797 0.09375 0.28125 0 0.125-0.03125 0.22656-0.09375 0.29688-0.054688 0.074219-0.125 0.10938-0.21875 0.10938-0.0625 0-0.11719-0.011719-0.15625-0.03125-0.03125-0.019531-0.070312-0.050781-0.10938-0.09375v0.10938h-0.23438v-1.0625h0.23438z"/>
  </symbol>
  <symbol id="i" overflow="visible">
   <path d="m0.015625-0.76562h0.25l0.20312 0.51562 0.17188-0.51562h0.25l-0.32812 0.84375c-0.03125 0.082031-0.070312 0.14062-0.10938 0.17188-0.042969 0.03125-0.10156 0.046875-0.17188 0.046875h-0.14062v-0.15625h0.078125c0.039062 0 0.070312-0.007813 0.09375-0.015625 0.019531-0.011719 0.035156-0.039062 0.046875-0.078125v-0.015625z"/>
  </symbol>
  <symbol id="h" overflow="visible">
   <path d="m0.5-0.57812c0.0625 0 0.10156-0.003906 0.125-0.015625 0.019531-0.019531 0.03125-0.054688 0.03125-0.10938 0-0.039063-0.011719-0.070313-0.03125-0.09375-0.023438-0.019531-0.0625-0.03125-0.125-0.03125h-0.10938v0.25zm-0.10938 0.1875v0.39062h-0.26562v-1.0312h0.40625c0.13281 0 0.23438 0.027344 0.29688 0.078125 0.0625 0.042969 0.09375 0.10938 0.09375 0.20312 0 0.074219-0.015625 0.13281-0.046875 0.17188-0.03125 0.042969-0.078125 0.074219-0.14062 0.09375 0.03125 0.011719 0.0625 0.03125 0.09375 0.0625s0.054687 0.074219 0.078125 0.125l0.15625 0.29688h-0.29688l-0.125-0.25c-0.023437-0.050781-0.046875-0.085938-0.078125-0.10938-0.023438-0.019531-0.054688-0.03125-0.09375-0.03125z"/>
  </symbol>
  <symbol id="g" overflow="visible">
   <path d="m0.125-0.76562h0.23438v0.76562h-0.23438zm0-0.29688h0.23438v0.1875h-0.23438z"/>
  </symbol>
  <symbol id="f" overflow="visible">
   <path d="m0.625-1.0625v0.15625h-0.14062c-0.03125 0-0.058594 0.007812-0.078125 0.015625-0.011719 0.011719-0.015625 0.03125-0.015625 0.0625v0.0625h0.21875v0.17188h-0.21875v0.59375h-0.23438v-0.59375h-0.125v-0.17188h0.125v-0.0625c0-0.082031 0.019531-0.14062 0.0625-0.17188 0.050781-0.039062 0.125-0.0625 0.21875-0.0625z"/>
  </symbol>
  <symbol id="d" overflow="visible">
   <path d="m0.48438-0.60938c-0.054687 0-0.09375 0.023437-0.125 0.0625-0.03125 0.03125-0.046875 0.085937-0.046875 0.15625 0 0.085937 0.015625 0.14844 0.046875 0.1875 0.03125 0.03125 0.070313 0.046875 0.125 0.046875 0.050781 0 0.09375-0.015625 0.125-0.046875 0.03125-0.039063 0.046875-0.10156 0.046875-0.1875 0-0.070313-0.015625-0.125-0.046875-0.15625-0.03125-0.039063-0.074219-0.0625-0.125-0.0625zm0-0.17188c0.13281 0 0.23828 0.039062 0.3125 0.10938 0.070313 0.0625 0.10938 0.15625 0.10938 0.28125 0 0.13672-0.039062 0.24219-0.10938 0.3125-0.074219 0.0625-0.17969 0.09375-0.3125 0.09375-0.13672 0-0.24219-0.03125-0.3125-0.09375-0.074219-0.070313-0.10938-0.17578-0.10938-0.3125 0-0.125 0.035156-0.21875 0.10938-0.28125 0.070313-0.070313 0.17578-0.10938 0.3125-0.10938z"/>
  </symbol>
  <symbol id="s" overflow="visible">
   <path d="m0.82812-0.64062c0.03125-0.050781 0.066406-0.085937 0.10938-0.10938 0.039062-0.019531 0.085938-0.03125 0.14062-0.03125 0.09375 0 0.16016 0.027344 0.20312 0.078125 0.050781 0.054687 0.078125 0.13281 0.078125 0.23438v0.46875h-0.25v-0.40625-0.046875c0-0.050781-0.011719-0.085937-0.03125-0.10938-0.011719-0.03125-0.039063-0.046875-0.078125-0.046875-0.042969 0-0.078125 0.023437-0.10938 0.0625-0.023437 0.042969-0.03125 0.10156-0.03125 0.17188v0.375h-0.25v-0.40625c0-0.082031-0.011719-0.13281-0.03125-0.15625-0.011719-0.03125-0.03125-0.046875-0.0625-0.046875-0.054687 0-0.09375 0.023437-0.125 0.0625-0.023437 0.042969-0.03125 0.10156-0.03125 0.17188v0.375h-0.25v-0.76562h0.25v0.10938c0.03125-0.039062 0.066406-0.070312 0.10938-0.09375 0.039062-0.019531 0.082031-0.03125 0.125-0.03125 0.050781 0 0.097656 0.015625 0.14062 0.046875 0.039063 0.023437 0.070313 0.054687 0.09375 0.09375z"/>
  </symbol>
  <symbol id="r" overflow="visible">
   <path d="m0.89062-0.46875v0.46875h-0.25v-0.35938-0.125c0-0.03125-0.007813-0.050781-0.015625-0.0625-0.011719-0.019531-0.027344-0.035156-0.046875-0.046875-0.011719-0.007812-0.027344-0.015625-0.046875-0.015625-0.054688 0-0.09375 0.023437-0.125 0.0625-0.03125 0.042969-0.046875 0.10156-0.046875 0.17188v0.375h-0.23438v-1.0625h0.23438v0.40625c0.039063-0.039062 0.082031-0.070312 0.125-0.09375 0.039063-0.019531 0.085937-0.03125 0.14062-0.03125 0.082031 0 0.14453 0.027344 0.1875 0.078125 0.050781 0.054687 0.078125 0.13281 0.078125 0.23438z"/>
  </symbol>
  <symbol id="q" overflow="visible">
   <path d="m0.125-1.0312h0.29688l0.375 0.70312v-0.70312h0.25v1.0312h-0.29688l-0.375-0.70312v0.70312h-0.25z"/>
  </symbol>
  <symbol id="p" overflow="visible">
   <path d="m0.10938-0.29688v-0.46875h0.25v0.078125 0.15625 0.125 0.14062c0 0.023437 0.003906 0.039063 0.015625 0.046875 0.007812 0.023438 0.019531 0.039062 0.03125 0.046875h0.0625c0.050781 0 0.09375-0.015625 0.125-0.046875 0.03125-0.039062 0.046875-0.097656 0.046875-0.17188v-0.375h0.25v0.76562h-0.25v-0.10938c-0.042969 0.042969-0.085937 0.074219-0.125 0.09375-0.042969 0.019531-0.089844 0.03125-0.14062 0.03125-0.085938 0-0.15234-0.023438-0.20312-0.078125-0.042969-0.050781-0.0625-0.12891-0.0625-0.23438z"/>
  </symbol>
  <symbol id="o" overflow="visible">
   <path d="m0.89062-0.46875v0.46875h-0.25v-0.35938-0.125c0-0.03125-0.007813-0.050781-0.015625-0.0625-0.011719-0.019531-0.027344-0.035156-0.046875-0.046875-0.011719-0.007812-0.027344-0.015625-0.046875-0.015625-0.054688 0-0.09375 0.023437-0.125 0.0625-0.03125 0.042969-0.046875 0.10156-0.046875 0.17188v0.375h-0.23438v-0.76562h0.23438v0.10938c0.039063-0.039062 0.082031-0.070312 0.125-0.09375 0.039063-0.019531 0.085937-0.03125 0.14062-0.03125 0.082031 0 0.14453 0.027344 0.1875 0.078125 0.050781 0.054687 0.078125 0.13281 0.078125 0.23438z"/>
  </symbol>
  <symbol id="n" overflow="visible">
   <path d="m0.125-1.0312h0.4375c0.13281 0 0.23438 0.03125 0.29688 0.09375 0.070313 0.0625 0.10938 0.14844 0.10938 0.25 0 0.10547-0.039062 0.1875-0.10938 0.25-0.0625 0.054688-0.16406 0.078125-0.29688 0.078125h-0.17188v0.35938h-0.26562zm0.26562 0.20312v0.28125h0.15625c0.039063 0 0.078125-0.007813 0.10938-0.03125 0.03125-0.03125 0.046875-0.066406 0.046875-0.10938 0-0.050781-0.015625-0.085938-0.046875-0.10938-0.03125-0.019531-0.070312-0.03125-0.10938-0.03125z"/>
  </symbol>
  <symbol id="m" overflow="visible">
   <path d="m0.125-0.76562h0.23438v0.75c0 0.10156-0.027344 0.17969-0.078125 0.23438-0.042969 0.050781-0.10938 0.078125-0.20312 0.078125h-0.125v-0.15625h0.046875c0.039062 0 0.070312-0.011719 0.09375-0.03125 0.019531-0.023438 0.03125-0.0625 0.03125-0.125zm0-0.29688h0.23438v0.1875h-0.23438z"/>
  </symbol>
  <symbol id="l" overflow="visible">
   <path d="m0.73438-0.75v0.20312c-0.03125-0.019531-0.0625-0.035156-0.09375-0.046875-0.03125-0.007812-0.070313-0.015625-0.10938-0.015625-0.0625 0-0.11719 0.023437-0.15625 0.0625-0.042969 0.042969-0.0625 0.09375-0.0625 0.15625 0 0.074219 0.019531 0.13281 0.0625 0.17188 0.039062 0.042969 0.09375 0.0625 0.15625 0.0625 0.039062 0 0.078125-0.003906 0.10938-0.015625 0.039063-0.007813 0.070313-0.023437 0.09375-0.046875v0.20312c-0.03125 0.011719-0.070313 0.015625-0.10938 0.015625-0.042969 0.0078125-0.085938 0.015625-0.125 0.015625-0.13672 0-0.24609-0.03125-0.32812-0.09375-0.074219-0.070313-0.10938-0.17578-0.10938-0.3125 0-0.125 0.035156-0.21875 0.10938-0.28125 0.082031-0.070313 0.19141-0.10938 0.32812-0.10938 0.039062 0 0.082031 0.007812 0.125 0.015625 0.039062 0 0.078125 0.007813 0.10938 0.015625z"/>
  </symbol>
 </defs>
 <g>
  <path d="m281.45 180.47c0-11.492-9.375-20.844-20.895-20.844h-6.2539c-11.523 0-20.895 9.3516-20.895 20.844v6.8438h48.043z"/>
  <path d="m376.91 238.33-12.109-19.004c-7.4375-11.672-24.109-20.816-37.949-20.816h-138.84c-13.84 0-30.512 9.1445-37.949 20.816l-12.109 19c-1.375 2.1562-1.4648 4.8867-0.23438 7.1289 1.2305 2.2422 3.582 3.6328 6.1367 3.6328h227.15c2.5547 0 4.9102-1.3945 6.1367-3.6328s1.1406-4.9727-0.23438-7.125z"/>
  <path d="m542.25 259.06h-156.01l-9.4258 48.438h165.43c11.523 0 20.895-9.375 20.895-20.895v-6.6445c0-11.523-9.3711-20.898-20.895-20.898z"/>
  <path d="m143.86 260.29c-1.2461 0-2.4688-0.12891-3.6641-0.37109l22.246 114.33c1.3672 7.0352 5.3984 13.609 11.352 18.516 5.9531 4.9062 13.176 7.6094 20.344 7.6094l126.59-0.003906c7.1641 0 14.391-2.7031 20.344-7.6094s9.9844-11.48 11.352-18.516l22.246-114.33c-1.1914 0.24609-2.418 0.37109-3.6641 0.37109z"/>
  <use x="70" y="564.199219" xlink:href="#t"/>
  <use x="71.027344" y="564.199219" xlink:href="#c"/>
  <use x="71.71875" y="564.199219" xlink:href="#a"/>
  <use x="72.667969" y="564.199219" xlink:href="#e"/>
  <use x="73.613281" y="564.199219" xlink:href="#b"/>
  <use x="74.28125" y="564.199219" xlink:href="#a"/>
  <use x="75.230469" y="564.199219" xlink:href="#k"/>
  <use x="76.71875" y="564.199219" xlink:href="#j"/>
  <use x="77.722656" y="564.199219" xlink:href="#i"/>
  <use x="79.121094" y="564.199219" xlink:href="#h"/>
  <use x="80.199219" y="564.199219" xlink:href="#g"/>
  <use x="80.679688" y="564.199219" xlink:href="#f"/>
  <use x="81.289062" y="564.199219" xlink:href="#e"/>
  <use x="82.234375" y="564.199219" xlink:href="#g"/>
  <use x="70" y="565.601562" xlink:href="#f"/>
  <use x="70.609375" y="565.601562" xlink:href="#c"/>
  <use x="71.300781" y="565.601562" xlink:href="#d"/>
  <use x="72.261719" y="565.601562" xlink:href="#s"/>
  <use x="74.207031" y="565.601562" xlink:href="#b"/>
  <use x="74.875" y="565.601562" xlink:href="#r"/>
  <use x="75.875" y="565.601562" xlink:href="#a"/>
  <use x="77.308594" y="565.601562" xlink:href="#q"/>
  <use x="78.480469" y="565.601562" xlink:href="#d"/>
  <use x="79.445312" y="565.601562" xlink:href="#p"/>
  <use x="80.441406" y="565.601562" xlink:href="#o"/>
  <use x="81.925781" y="565.601562" xlink:href="#n"/>
  <use x="82.949219" y="565.601562" xlink:href="#c"/>
  <use x="83.640625" y="565.601562" xlink:href="#d"/>
  <use x="84.601563" y="565.601562" xlink:href="#m"/>
  <use x="85.082031" y="565.601562" xlink:href="#a"/>
  <use x="86.03125" y="565.601562" xlink:href="#l"/>
  <use x="86.863281" y="565.601562" xlink:href="#b"/>
 </g>
</svg>
